<?xml version="1.0" encoding="utf-8"?>
<!DOCTYPE svg PUBLIC "-//W3C//DTD SVG 1.1//EN" "http://www.w3.org/Graphics/SVG/1.1/DTD/svg11.dtd">
<svg width="24px" height="24px" viewBox="0 0 28 28" xmlns="http://www.w3.org/2000/svg">
	<path d="M 16 0 C 14.252129 9.3696902e-16 12.794363 1.1251767 12.25 2.6875 C 11.611596 2.2562027 10.828427 2 10 2 C 7.790861 2 6 3.790861 6 6 C 6 6.8284271 6.2562027 7.6115959 6.6875 8.25 C 5.1251767 8.7943634 4 10.252129 4 12 C 4 14.209139 5.790861 16 8 16 C 8 18.209139 9.790861 20 12 20 C 12.72993 20 13.410912 19.779016 14 19.4375 L 14 32 L 18 32 L 18 19.4375 C 19.519386 20.324617 21.496031 20.135175 22.8125 18.84375 C 23.609662 18.061743 23.998441 17.034393 24 16 C 26.194568 16.002878 27.9791 14.228697 28 12.03125 C 28.015938 10.270953 26.887798 8.8001766 25.3125 8.25 C 25.743797 7.6115959 26 6.8284271 26 6 C 26 3.790861 24.209139 2 22 2 C 21.171573 2 20.388404 2.2562027 19.75 2.6875 C 19.205637 1.1251767 17.747871 -5.4541602e-16 16 0 z "></path>
</svg>